<svg width="625" height="246" viewBox="0 0 625 246" fill="none" xmlns="http://www.w3.org/2000/svg">
<g filter="url(#filter0_d_416_3839)">
<rect x="17" y="14" width="383" height="80" rx="20" fill="white" shape-rendering="crispEdges"/>
<path d="M60.2573 26.12V35.5H62.1613V32.434H64.6253C66.7813 32.434 68.0973 31.174 68.0973 29.27C68.0973 27.394 66.7813 26.12 64.6253 26.12H60.2573ZM62.1613 30.712V27.842H64.6253C65.6473 27.842 66.2073 28.43 66.2073 29.27C66.2073 30.138 65.6473 30.712 64.6253 30.712H62.1613ZM76.5959 28.514H74.7479V29.074C74.1599 28.584 73.3899 28.304 72.4379 28.304C70.6599 28.304 69.0079 29.816 69.0079 32.014C69.0079 34.212 70.6599 35.71 72.4379 35.71C73.3899 35.71 74.1599 35.43 74.7479 34.954V35.5H76.5959V28.514ZM72.7599 34.1C71.6399 34.1 70.7999 33.302 70.7999 32.014C70.7999 30.726 71.6399 29.914 72.7599 29.914C73.7539 29.914 74.7479 30.726 74.7479 32.014C74.7479 33.302 73.7539 34.1 72.7599 34.1ZM85.6063 28.5H83.5483L81.6163 32.966L79.7683 28.5H77.7103L80.6083 35.276L79.4883 37.88H81.5463L85.6063 28.5ZM95.5041 28.304C94.3841 28.304 93.5301 28.738 92.9561 29.452C92.4521 28.71 91.5981 28.304 90.6601 28.304C89.7501 28.304 89.0641 28.598 88.5741 29.088V28.514H86.7261V35.5H88.5741V32.14C88.5741 30.67 89.1901 29.998 90.1701 29.998C90.9401 29.998 91.5421 30.572 91.5421 31.51V35.5H93.3901V32.14C93.3901 30.67 94.0341 29.998 95.0141 29.998C95.7841 29.998 96.3861 30.572 96.3861 31.51V35.5H98.2201V31.132C98.2201 29.424 96.9601 28.304 95.5041 28.304ZM106.609 31.874C106.539 29.746 104.929 28.304 103.067 28.304C101.065 28.304 99.4552 29.816 99.4552 32.014C99.4552 34.212 101.065 35.71 103.039 35.71C104.565 35.71 105.811 35.01 106.427 33.554L104.775 33.204C104.271 34.058 103.585 34.128 103.039 34.128C102.185 34.128 101.471 33.512 101.289 32.504H106.609V31.874ZM103.067 29.914C103.809 29.914 104.481 30.306 104.719 31.202H101.345C101.569 30.334 102.367 29.914 103.067 29.914ZM112.059 28.304C111.135 28.304 110.407 28.598 109.861 29.144V28.514H108.013V35.5H109.861V32.406C109.861 30.698 110.547 29.998 111.597 29.998C112.451 29.998 113.011 30.656 113.011 31.636V35.5H114.859V31.244C114.859 29.508 113.739 28.304 112.059 28.304ZM121.19 33.652C120.826 33.848 120.35 33.988 120.028 33.988C119.412 33.988 119.006 33.624 119.006 32.784V30.026H121.288V28.514H119.006V26.4H117.158V28.514H115.66V30.026H117.158V32.924C117.158 34.842 118.25 35.71 119.902 35.71C120.49 35.71 120.994 35.584 121.722 35.192L121.19 33.652ZM130.623 33.932C128.943 33.932 127.613 32.588 127.613 30.81C127.613 29.032 128.943 27.702 130.623 27.702C131.925 27.702 133.045 28.416 133.395 30.04L135.243 29.522C134.767 27.268 132.877 25.91 130.623 25.91C127.865 25.91 125.695 28.066 125.695 30.81C125.695 33.568 127.865 35.71 130.623 35.71C132.877 35.71 134.781 34.366 135.243 31.958L133.395 31.58C133.045 33.218 131.925 33.932 130.623 33.932ZM140.027 28.346C137.941 28.346 136.219 29.816 136.219 32.014C136.219 34.212 137.941 35.682 140.027 35.682C142.071 35.682 143.793 34.212 143.793 32.014C143.793 29.816 142.071 28.346 140.027 28.346ZM140.027 34.1C139.019 34.1 138.011 33.316 138.011 32.014C138.011 30.712 139.019 29.928 140.027 29.928C140.993 29.928 142.001 30.712 142.001 32.014C142.001 33.316 140.993 34.1 140.027 34.1ZM153.965 28.304C152.845 28.304 151.991 28.738 151.417 29.452C150.913 28.71 150.059 28.304 149.121 28.304C148.211 28.304 147.525 28.598 147.035 29.088V28.514H145.187V35.5H147.035V32.14C147.035 30.67 147.651 29.998 148.631 29.998C149.401 29.998 150.003 30.572 150.003 31.51V35.5H151.851V32.14C151.851 30.67 152.495 29.998 153.475 29.998C154.245 29.998 154.847 30.572 154.847 31.51V35.5H156.681V31.132C156.681 29.424 155.421 28.304 153.965 28.304ZM162.634 28.304C161.682 28.304 160.912 28.584 160.324 29.074V28.514H158.476V37.88H160.324V34.954C160.912 35.43 161.682 35.71 162.634 35.71C164.412 35.71 166.064 34.212 166.064 32.014C166.064 29.816 164.412 28.304 162.634 28.304ZM162.312 34.1C161.318 34.1 160.324 33.302 160.324 32.014C160.324 30.726 161.318 29.914 162.312 29.914C163.432 29.914 164.272 30.726 164.272 32.014C164.272 33.302 163.432 34.1 162.312 34.1ZM169.307 35.5V25.42H167.459V35.5H169.307ZM177.867 31.874C177.797 29.746 176.187 28.304 174.325 28.304C172.323 28.304 170.713 29.816 170.713 32.014C170.713 34.212 172.323 35.71 174.297 35.71C175.823 35.71 177.069 35.01 177.685 33.554L176.033 33.204C175.529 34.058 174.843 34.128 174.297 34.128C173.443 34.128 172.729 33.512 172.547 32.504H177.867V31.874ZM174.325 29.914C175.067 29.914 175.739 30.306 175.977 31.202H172.603C172.827 30.334 173.625 29.914 174.325 29.914ZM183.821 33.652C183.457 33.848 182.981 33.988 182.659 33.988C182.043 33.988 181.637 33.624 181.637 32.784V30.026H183.919V28.514H181.637V26.4H179.789V28.514H178.291V30.026H179.789V32.924C179.789 34.842 180.881 35.71 182.533 35.71C183.121 35.71 183.625 35.584 184.353 35.192L183.821 33.652ZM191.799 31.874C191.729 29.746 190.119 28.304 188.257 28.304C186.255 28.304 184.645 29.816 184.645 32.014C184.645 34.212 186.255 35.71 188.229 35.71C189.755 35.71 191.001 35.01 191.617 33.554L189.965 33.204C189.461 34.058 188.775 34.128 188.229 34.128C187.375 34.128 186.661 33.512 186.479 32.504H191.799V31.874ZM188.257 29.914C188.999 29.914 189.671 30.306 189.909 31.202H186.535C186.759 30.334 187.557 29.914 188.257 29.914Z" fill="black"/>
<path d="M69.1851 58.5L65.0551 49.12H63.6551L59.5251 58.5H61.1491L62.0731 56.316H66.6371L67.5611 58.5H69.1851ZM66.0491 54.944H62.6611L64.3551 50.954L66.0491 54.944ZM74.3398 51.36C73.2898 51.36 72.4218 51.724 71.8198 52.354V48.42H70.3638V58.5H71.8198V57.702C72.4218 58.332 73.2898 58.696 74.3398 58.696C76.1598 58.696 77.7838 57.226 77.7838 55.028C77.7838 52.844 76.1598 51.36 74.3398 51.36ZM74.1018 57.408C72.9538 57.408 71.8198 56.498 71.8198 55.028C71.8198 53.572 72.9538 52.648 74.1018 52.648C75.3758 52.648 76.3698 53.572 76.3698 55.028C76.3698 56.498 75.3758 57.408 74.1018 57.408ZM85.8553 51.556H84.3993V54.762C84.3993 56.512 83.5873 57.352 82.3413 57.352C81.3333 57.352 80.6753 56.582 80.6753 55.448V51.556H79.2193V55.742C79.2193 57.492 80.3253 58.696 82.0053 58.696C83.0273 58.696 83.8393 58.318 84.3993 57.646V58.5H85.8553V51.556ZM89.0909 48.56C88.5589 48.56 88.1669 48.98 88.1669 49.47C88.1669 49.988 88.5589 50.366 89.0909 50.366C89.6229 50.366 90.0289 49.988 90.0289 49.47C90.0289 48.98 89.6229 48.56 89.0909 48.56ZM86.6689 60.768C87.0189 60.908 87.4389 61.02 87.9569 61.02C89.0909 61.02 89.8469 60.264 89.8469 59.144V51.556H88.3909V58.948C88.3909 59.368 88.0689 59.648 87.6069 59.648C87.4109 59.648 87.1869 59.592 86.9489 59.494L86.6689 60.768ZM98.9331 51.556H97.4771V52.354C96.8751 51.724 96.0071 51.36 94.9571 51.36C93.1371 51.36 91.5131 52.844 91.5131 55.028C91.5131 57.226 93.1371 58.696 94.9571 58.696C96.0071 58.696 96.8751 58.332 97.4771 57.702V58.5H98.9331V51.556ZM95.1951 57.408C93.9211 57.408 92.9271 56.498 92.9271 55.028C92.9271 53.572 93.9211 52.648 95.1951 52.648C96.3431 52.648 97.4771 53.572 97.4771 55.028C97.4771 56.498 96.3431 57.408 95.1951 57.408ZM111.584 57.142H106.096V54.468H111.15V53.124H106.096V50.478H111.57V49.12H104.598V58.5H111.584V57.142ZM114.955 58.5V48.42H113.499V58.5H114.955ZM123.631 54.874C123.561 52.788 122.021 51.36 120.159 51.36C118.199 51.36 116.561 52.83 116.561 55.042C116.561 57.24 118.213 58.696 120.103 58.696C121.643 58.696 122.875 57.968 123.449 56.512L122.147 56.232C121.657 57.212 120.873 57.436 120.103 57.436C119.081 57.436 118.143 56.666 118.003 55.378H123.631V54.874ZM120.159 52.648C121.111 52.648 121.909 53.208 122.133 54.342H118.045C118.269 53.222 119.249 52.648 120.159 52.648ZM128.309 57.352C127.021 57.352 126.069 56.442 126.069 55.028C126.069 53.656 127.021 52.704 128.309 52.704C129.233 52.704 130.031 53.18 130.297 54.202L131.697 53.796C131.263 52.312 129.877 51.36 128.309 51.36C126.321 51.36 124.641 52.858 124.641 55.028C124.641 57.226 126.321 58.696 128.309 58.696C129.919 58.696 131.319 57.744 131.697 56.246L130.353 55.896C130.017 56.904 129.233 57.352 128.309 57.352ZM137.495 56.946C137.131 57.184 136.683 57.324 136.319 57.324C135.633 57.324 135.171 56.904 135.171 56.036V52.76H137.551V51.556H135.171V49.4H133.715V51.556H132.217V52.76H133.715V56.134C133.715 57.856 134.723 58.696 136.221 58.696C136.809 58.696 137.285 58.556 137.943 58.164L137.495 56.946ZM143.222 51.472C142.018 51.472 141.136 52.116 140.576 53.04V51.556H139.12V58.5H140.576V56.05C140.576 54.146 141.444 52.914 143.208 52.914C143.334 52.914 143.502 52.914 143.614 52.928L143.712 51.528C143.53 51.472 143.39 51.472 143.222 51.472ZM145.839 48.56C145.293 48.56 144.901 48.98 144.901 49.47C144.901 49.988 145.293 50.366 145.839 50.366C146.371 50.366 146.763 49.988 146.763 49.47C146.763 48.98 146.371 48.56 145.839 48.56ZM146.567 58.5V51.556H145.111V58.5H146.567ZM151.947 57.352C150.659 57.352 149.707 56.442 149.707 55.028C149.707 53.656 150.659 52.704 151.947 52.704C152.871 52.704 153.669 53.18 153.935 54.202L155.335 53.796C154.901 52.312 153.515 51.36 151.947 51.36C149.959 51.36 148.279 52.858 148.279 55.028C148.279 57.226 149.959 58.696 151.947 58.696C153.557 58.696 154.957 57.744 155.335 56.246L153.991 55.896C153.655 56.904 152.871 57.352 151.947 57.352ZM160.42 49.12V58.5H163.696C166.888 58.5 168.876 56.54 168.876 53.81C168.876 51.08 166.888 49.12 163.696 49.12H160.42ZM161.918 57.142V50.478H163.696C165.978 50.478 167.364 51.864 167.364 53.81C167.364 55.756 165.978 57.142 163.696 57.142H161.918ZM171.487 48.56C170.941 48.56 170.549 48.98 170.549 49.47C170.549 49.988 170.941 50.366 171.487 50.366C172.019 50.366 172.411 49.988 172.411 49.47C172.411 48.98 172.019 48.56 171.487 48.56ZM172.215 58.5V51.556H170.759V58.5H172.215ZM173.942 56.638C174.124 58.038 175.454 58.696 177.008 58.696C178.744 58.696 179.934 57.912 179.934 56.456C179.934 55.476 179.248 54.818 178.128 54.58L176.476 54.216C175.86 54.076 175.636 53.824 175.636 53.432C175.636 52.942 176.014 52.522 176.868 52.522C177.764 52.522 178.338 52.984 178.45 53.656L179.836 53.362C179.584 52.2 178.506 51.36 176.91 51.36C175.244 51.36 174.166 52.27 174.166 53.558C174.166 54.538 174.852 55.182 176.056 55.448L177.568 55.756C178.212 55.896 178.506 56.162 178.506 56.582C178.506 57.128 177.974 57.506 177.134 57.506C176.224 57.506 175.496 57.156 175.398 56.33L173.942 56.638ZM185.757 56.946C185.393 57.184 184.945 57.324 184.581 57.324C183.895 57.324 183.433 56.904 183.433 56.036V52.76H185.813V51.556H183.433V49.4H181.977V51.556H180.479V52.76H181.977V56.134C181.977 57.856 182.985 58.696 184.483 58.696C185.071 58.696 185.547 58.556 186.205 58.164L185.757 56.946ZM191.483 51.472C190.279 51.472 189.397 52.116 188.837 53.04V51.556H187.381V58.5H188.837V56.05C188.837 54.146 189.705 52.914 191.469 52.914C191.595 52.914 191.763 52.914 191.875 52.928L191.973 51.528C191.791 51.472 191.651 51.472 191.483 51.472ZM194.1 48.56C193.554 48.56 193.162 48.98 193.162 49.47C193.162 49.988 193.554 50.366 194.1 50.366C194.632 50.366 195.024 49.988 195.024 49.47C195.024 48.98 194.632 48.56 194.1 48.56ZM194.828 58.5V51.556H193.372V58.5H194.828ZM201.119 51.36C200.069 51.36 199.201 51.724 198.599 52.354V48.42H197.143V58.5H198.599V57.702C199.201 58.332 200.069 58.696 201.119 58.696C202.939 58.696 204.563 57.226 204.563 55.028C204.563 52.844 202.939 51.36 201.119 51.36ZM200.881 57.408C199.733 57.408 198.599 56.498 198.599 55.028C198.599 53.572 199.733 52.648 200.881 52.648C202.155 52.648 203.149 53.572 203.149 55.028C203.149 56.498 202.155 57.408 200.881 57.408ZM212.635 51.556H211.179V54.762C211.179 56.512 210.367 57.352 209.121 57.352C208.113 57.352 207.455 56.582 207.455 55.448V51.556H205.999V55.742C205.999 57.492 207.105 58.696 208.785 58.696C209.807 58.696 210.619 58.318 211.179 57.646V58.5H212.635V51.556ZM219.02 56.946C218.656 57.184 218.208 57.324 217.844 57.324C217.158 57.324 216.696 56.904 216.696 56.036V52.76H219.076V51.556H216.696V49.4H215.24V51.556H213.742V52.76H215.24V56.134C215.24 57.856 216.248 58.696 217.746 58.696C218.334 58.696 218.81 58.556 219.468 58.164L219.02 56.946ZM221.485 48.56C220.939 48.56 220.547 48.98 220.547 49.47C220.547 49.988 220.939 50.366 221.485 50.366C222.017 50.366 222.409 49.988 222.409 49.47C222.409 48.98 222.017 48.56 221.485 48.56ZM222.213 58.5V51.556H220.757V58.5H222.213ZM227.664 51.402C225.606 51.402 223.926 52.872 223.926 55.028C223.926 57.184 225.606 58.668 227.664 58.668C229.708 58.668 231.374 57.184 231.374 55.028C231.374 52.872 229.708 51.402 227.664 51.402ZM227.664 57.408C226.446 57.408 225.354 56.47 225.354 55.028C225.354 53.586 226.446 52.648 227.664 52.648C228.854 52.648 229.96 53.586 229.96 55.028C229.96 56.47 228.854 57.408 227.664 57.408ZM236.868 51.36C235.832 51.36 235.02 51.738 234.46 52.41V51.556H233.004V58.5H234.46V55.294C234.46 53.544 235.286 52.704 236.532 52.704C237.526 52.704 238.184 53.46 238.184 54.594V58.5H239.654V54.3C239.654 52.564 238.534 51.36 236.868 51.36ZM249.597 57.282C247.707 57.282 246.223 55.784 246.223 53.81C246.223 51.836 247.707 50.338 249.597 50.338C251.067 50.338 252.271 51.122 252.691 52.704L254.147 52.284C253.615 50.212 251.809 48.924 249.597 48.924C246.867 48.924 244.711 51.08 244.711 53.81C244.711 56.554 246.867 58.696 249.597 58.696C251.809 58.696 253.629 57.422 254.147 55.224L252.691 54.916C252.271 56.498 251.067 57.282 249.597 57.282ZM259.055 51.402C256.997 51.402 255.317 52.872 255.317 55.028C255.317 57.184 256.997 58.668 259.055 58.668C261.099 58.668 262.765 57.184 262.765 55.028C262.765 52.872 261.099 51.402 259.055 51.402ZM259.055 57.408C257.837 57.408 256.745 56.47 256.745 55.028C256.745 53.586 257.837 52.648 259.055 52.648C260.245 52.648 261.351 53.586 261.351 55.028C261.351 56.47 260.245 57.408 259.055 57.408ZM272.977 51.36C271.829 51.36 270.947 51.85 270.387 52.634C269.939 51.822 269.071 51.36 268.077 51.36C267.083 51.36 266.355 51.724 265.851 52.34V51.556H264.395V58.5H265.851V55.056C265.851 53.502 266.579 52.704 267.699 52.704C268.595 52.704 269.267 53.348 269.267 54.37V58.5H270.723V55.056C270.723 53.502 271.465 52.704 272.599 52.704C273.495 52.704 274.167 53.348 274.167 54.37V58.5H275.609V54.076C275.609 52.438 274.419 51.36 272.977 51.36ZM281.646 51.36C280.596 51.36 279.728 51.724 279.126 52.354V51.556H277.67V60.88H279.126V57.702C279.728 58.332 280.596 58.696 281.646 58.696C283.466 58.696 285.09 57.226 285.09 55.028C285.09 52.844 283.466 51.36 281.646 51.36ZM281.408 57.408C280.26 57.408 279.126 56.498 279.126 55.028C279.126 53.572 280.26 52.648 281.408 52.648C282.682 52.648 283.676 53.572 283.676 55.028C283.676 56.498 282.682 57.408 281.408 57.408ZM293.484 51.556H292.028V52.354C291.426 51.724 290.558 51.36 289.508 51.36C287.688 51.36 286.064 52.844 286.064 55.028C286.064 57.226 287.688 58.696 289.508 58.696C290.558 58.696 291.426 58.332 292.028 57.702V58.5H293.484V51.556ZM289.746 57.408C288.472 57.408 287.478 56.498 287.478 55.028C287.478 53.572 288.472 52.648 289.746 52.648C290.894 52.648 292.028 53.572 292.028 55.028C292.028 56.498 290.894 57.408 289.746 57.408ZM299.554 51.36C298.518 51.36 297.706 51.738 297.146 52.41V51.556H295.69V58.5H297.146V55.294C297.146 53.544 297.972 52.704 299.218 52.704C300.212 52.704 300.87 53.46 300.87 54.594V58.5H302.34V54.3C302.34 52.564 301.22 51.36 299.554 51.36ZM310.86 51.542H309.236L307.01 56.554L304.84 51.542H303.216L306.212 58.332L305.078 60.88H306.702L310.86 51.542Z" fill="black"/>
<path d="M68.713 72.12H67.607V79.652L61.475 72.12H60.523V81.5H61.629V74.052L67.761 81.5H68.713V72.12ZM72.1537 75.83L72.2937 73.114H76.8157V72.12H71.2717L71.0617 76.824H74.0157C75.2897 76.824 76.1297 77.44 76.1297 78.658C76.1297 79.876 75.2337 80.674 73.9037 80.674C72.5597 80.674 71.5657 79.806 71.5657 78.252L70.5017 78.462C70.5157 80.492 71.9717 81.682 73.8897 81.682C75.8777 81.682 77.1797 80.436 77.1797 78.644C77.1797 76.824 75.9617 75.83 74.0997 75.83H72.1537ZM78.593 83.348L79.937 79.694V79.666H78.677L77.753 83.348H78.593ZM84.9393 71.938C82.6153 71.938 81.0473 73.912 81.0473 76.81C81.0473 79.722 82.6153 81.682 84.9393 81.682C87.2633 81.682 88.8173 79.722 88.8173 76.81C88.8173 73.912 87.2633 71.938 84.9393 71.938ZM84.9393 80.646C83.2593 80.646 82.1673 79.092 82.1673 76.81C82.1673 74.514 83.2593 72.96 84.9393 72.96C86.6053 72.96 87.6973 74.514 87.6973 76.81C87.6973 79.092 86.6053 80.646 84.9393 80.646ZM94.2499 71.938C91.9259 71.938 90.3579 73.912 90.3579 76.81C90.3579 79.722 91.9259 81.682 94.2499 81.682C96.5739 81.682 98.1279 79.722 98.1279 76.81C98.1279 73.912 96.5739 71.938 94.2499 71.938ZM94.2499 80.646C92.5699 80.646 91.4779 79.092 91.4779 76.81C91.4779 74.514 92.5699 72.96 94.2499 72.96C95.9159 72.96 97.0079 74.514 97.0079 76.81C97.0079 79.092 95.9159 80.646 94.2499 80.646ZM103.56 71.938C101.236 71.938 99.6684 73.912 99.6684 76.81C99.6684 79.722 101.236 81.682 103.56 81.682C105.884 81.682 107.438 79.722 107.438 76.81C107.438 73.912 105.884 71.938 103.56 71.938ZM103.56 80.646C101.88 80.646 100.788 79.092 100.788 76.81C100.788 74.514 101.88 72.96 103.56 72.96C105.226 72.96 106.318 74.514 106.318 76.81C106.318 79.092 105.226 80.646 103.56 80.646Z" fill="black"/>
<circle cx="39.25" cy="30.5" r="3.5" fill="#25AA22"/>
<g filter="url(#filter1_d_416_3839)">
<path d="M354.75 80.5C369.386 80.5 381.25 68.6355 381.25 54C381.25 39.3645 369.386 27.5 354.75 27.5C340.114 27.5 328.25 39.3645 328.25 54C328.25 68.6355 340.114 80.5 354.75 80.5Z" fill="#25AA22"/>
</g>
<path d="M352.543 64.4308C352.486 64.4308 352.428 64.4295 352.371 64.4267C351.866 64.402 351.372 64.2673 350.923 64.032C350.475 63.7966 350.082 63.4662 349.772 63.0633L345.621 57.6788C345.05 56.9369 344.795 55.9968 344.91 55.0648C345.025 54.1328 345.502 53.2851 346.236 52.7077L346.385 52.5908C347.12 52.0149 348.052 51.7568 348.976 51.873C349.899 51.9893 350.74 52.4705 351.312 53.211C351.499 53.4529 351.735 53.6514 352.004 53.7927C352.273 53.934 352.57 54.0148 352.873 54.0296C353.177 54.0475 353.48 53.9976 353.763 53.8833C354.045 53.7691 354.299 53.5933 354.506 53.3686L362.933 44.3916C363.574 43.7106 364.456 43.3139 365.386 43.2885C366.317 43.2631 367.219 43.6111 367.895 44.2561L368.032 44.3867C368.708 45.0333 369.101 45.9238 369.126 46.8628C369.151 47.8018 368.807 48.7125 368.167 49.3952L355.09 63.3246C354.763 63.6742 354.368 63.9526 353.93 64.1428C353.492 64.333 353.02 64.431 352.543 64.4308Z" fill="white"/>
<path opacity="0.16" d="M354.75 76.7922C348.046 76.7913 341.591 74.2644 336.687 69.721C331.783 65.1776 328.794 58.9553 328.323 52.3085C328.28 52.9217 328.25 53.5385 328.25 54.1625C328.25 61.1476 331.042 67.8467 336.012 72.7859C340.981 77.7252 347.722 80.5 354.75 80.5C361.778 80.5 368.519 77.7252 373.488 72.7859C378.458 67.8467 381.25 61.1476 381.25 54.1625C381.25 53.5385 381.22 52.9217 381.177 52.3085C380.706 58.9553 377.717 65.1776 372.813 69.721C367.909 74.2644 361.454 76.7913 354.75 76.7922Z" fill="#231F20"/>
</g>
<g filter="url(#filter2_d_416_3839)">
<rect x="231" y="120" width="351" height="80" rx="20" fill="white" shape-rendering="crispEdges"/>
<path d="M267.757 132.12V141.5H269.661V138.434H272.125C274.281 138.434 275.597 137.174 275.597 135.27C275.597 133.394 274.281 132.12 272.125 132.12H267.757ZM269.661 136.712V133.842H272.125C273.147 133.842 273.707 134.43 273.707 135.27C273.707 136.138 273.147 136.712 272.125 136.712H269.661ZM284.096 134.514H282.248V135.074C281.66 134.584 280.89 134.304 279.938 134.304C278.16 134.304 276.508 135.816 276.508 138.014C276.508 140.212 278.16 141.71 279.938 141.71C280.89 141.71 281.66 141.43 282.248 140.954V141.5H284.096V134.514ZM280.26 140.1C279.14 140.1 278.3 139.302 278.3 138.014C278.3 136.726 279.14 135.914 280.26 135.914C281.254 135.914 282.248 136.726 282.248 138.014C282.248 139.302 281.254 140.1 280.26 140.1ZM293.106 134.5H291.048L289.116 138.966L287.268 134.5H285.21L288.108 141.276L286.988 143.88H289.046L293.106 134.5ZM303.004 134.304C301.884 134.304 301.03 134.738 300.456 135.452C299.952 134.71 299.098 134.304 298.16 134.304C297.25 134.304 296.564 134.598 296.074 135.088V134.514H294.226V141.5H296.074V138.14C296.074 136.67 296.69 135.998 297.67 135.998C298.44 135.998 299.042 136.572 299.042 137.51V141.5H300.89V138.14C300.89 136.67 301.534 135.998 302.514 135.998C303.284 135.998 303.886 136.572 303.886 137.51V141.5H305.72V137.132C305.72 135.424 304.46 134.304 303.004 134.304ZM314.109 137.874C314.039 135.746 312.429 134.304 310.567 134.304C308.565 134.304 306.955 135.816 306.955 138.014C306.955 140.212 308.565 141.71 310.539 141.71C312.065 141.71 313.311 141.01 313.927 139.554L312.275 139.204C311.771 140.058 311.085 140.128 310.539 140.128C309.685 140.128 308.971 139.512 308.789 138.504H314.109V137.874ZM310.567 135.914C311.309 135.914 311.981 136.306 312.219 137.202H308.845C309.069 136.334 309.867 135.914 310.567 135.914ZM319.559 134.304C318.635 134.304 317.907 134.598 317.361 135.144V134.514H315.513V141.5H317.361V138.406C317.361 136.698 318.047 135.998 319.097 135.998C319.951 135.998 320.511 136.656 320.511 137.636V141.5H322.359V137.244C322.359 135.508 321.239 134.304 319.559 134.304ZM328.69 139.652C328.326 139.848 327.85 139.988 327.528 139.988C326.912 139.988 326.506 139.624 326.506 138.784V136.026H328.788V134.514H326.506V132.4H324.658V134.514H323.16V136.026H324.658V138.924C324.658 140.842 325.75 141.71 327.402 141.71C327.99 141.71 328.494 141.584 329.222 141.192L328.69 139.652ZM338.123 139.932C336.443 139.932 335.113 138.588 335.113 136.81C335.113 135.032 336.443 133.702 338.123 133.702C339.425 133.702 340.545 134.416 340.895 136.04L342.743 135.522C342.267 133.268 340.377 131.91 338.123 131.91C335.365 131.91 333.195 134.066 333.195 136.81C333.195 139.568 335.365 141.71 338.123 141.71C340.377 141.71 342.281 140.366 342.743 137.958L340.895 137.58C340.545 139.218 339.425 139.932 338.123 139.932ZM347.527 134.346C345.441 134.346 343.719 135.816 343.719 138.014C343.719 140.212 345.441 141.682 347.527 141.682C349.571 141.682 351.293 140.212 351.293 138.014C351.293 135.816 349.571 134.346 347.527 134.346ZM347.527 140.1C346.519 140.1 345.511 139.316 345.511 138.014C345.511 136.712 346.519 135.928 347.527 135.928C348.493 135.928 349.501 136.712 349.501 138.014C349.501 139.316 348.493 140.1 347.527 140.1ZM361.465 134.304C360.345 134.304 359.491 134.738 358.917 135.452C358.413 134.71 357.559 134.304 356.621 134.304C355.711 134.304 355.025 134.598 354.535 135.088V134.514H352.687V141.5H354.535V138.14C354.535 136.67 355.151 135.998 356.131 135.998C356.901 135.998 357.503 136.572 357.503 137.51V141.5H359.351V138.14C359.351 136.67 359.995 135.998 360.975 135.998C361.745 135.998 362.347 136.572 362.347 137.51V141.5H364.181V137.132C364.181 135.424 362.921 134.304 361.465 134.304ZM370.134 134.304C369.182 134.304 368.412 134.584 367.824 135.074V134.514H365.976V143.88H367.824V140.954C368.412 141.43 369.182 141.71 370.134 141.71C371.912 141.71 373.564 140.212 373.564 138.014C373.564 135.816 371.912 134.304 370.134 134.304ZM369.812 140.1C368.818 140.1 367.824 139.302 367.824 138.014C367.824 136.726 368.818 135.914 369.812 135.914C370.932 135.914 371.772 136.726 371.772 138.014C371.772 139.302 370.932 140.1 369.812 140.1ZM376.807 141.5V131.42H374.959V141.5H376.807ZM385.367 137.874C385.297 135.746 383.687 134.304 381.825 134.304C379.823 134.304 378.213 135.816 378.213 138.014C378.213 140.212 379.823 141.71 381.797 141.71C383.323 141.71 384.569 141.01 385.185 139.554L383.533 139.204C383.029 140.058 382.343 140.128 381.797 140.128C380.943 140.128 380.229 139.512 380.047 138.504H385.367V137.874ZM381.825 135.914C382.567 135.914 383.239 136.306 383.477 137.202H380.103C380.327 136.334 381.125 135.914 381.825 135.914ZM391.321 139.652C390.957 139.848 390.481 139.988 390.159 139.988C389.543 139.988 389.137 139.624 389.137 138.784V136.026H391.419V134.514H389.137V132.4H387.289V134.514H385.791V136.026H387.289V138.924C387.289 140.842 388.381 141.71 390.033 141.71C390.621 141.71 391.125 141.584 391.853 141.192L391.321 139.652ZM399.299 137.874C399.229 135.746 397.619 134.304 395.757 134.304C393.755 134.304 392.145 135.816 392.145 138.014C392.145 140.212 393.755 141.71 395.729 141.71C397.255 141.71 398.501 141.01 399.117 139.554L397.465 139.204C396.961 140.058 396.275 140.128 395.729 140.128C394.875 140.128 394.161 139.512 393.979 138.504H399.299V137.874ZM395.757 135.914C396.499 135.914 397.171 136.306 397.409 137.202H394.035C394.259 136.334 395.057 135.914 395.757 135.914Z" fill="black"/>
<path d="M276.793 164.5L272.663 155.12H271.263L267.133 164.5H268.757L269.681 162.316H274.245L275.169 164.5H276.793ZM273.657 160.944H270.269L271.963 156.954L273.657 160.944ZM278.811 154.56C278.265 154.56 277.873 154.98 277.873 155.47C277.873 155.988 278.265 156.366 278.811 156.366C279.343 156.366 279.735 155.988 279.735 155.47C279.735 154.98 279.343 154.56 278.811 154.56ZM279.539 164.5V157.556H278.083V164.5H279.539ZM285.956 157.472C284.752 157.472 283.87 158.116 283.31 159.04V157.556H281.854V164.5H283.31V162.05C283.31 160.146 284.178 158.914 285.942 158.914C286.068 158.914 286.236 158.914 286.348 158.928L286.446 157.528C286.264 157.472 286.124 157.472 285.956 157.472ZM292.055 162.946C291.691 163.184 291.243 163.324 290.879 163.324C290.193 163.324 289.731 162.904 289.731 162.036V158.76H292.111V157.556H289.731V155.4H288.275V157.556H286.777V158.76H288.275V162.134C288.275 163.856 289.283 164.696 290.781 164.696C291.369 164.696 291.845 164.556 292.503 164.164L292.055 162.946ZM299.97 160.874C299.9 158.788 298.36 157.36 296.498 157.36C294.538 157.36 292.9 158.83 292.9 161.042C292.9 163.24 294.552 164.696 296.442 164.696C297.982 164.696 299.214 163.968 299.788 162.512L298.486 162.232C297.996 163.212 297.212 163.436 296.442 163.436C295.42 163.436 294.482 162.666 294.342 161.378H299.97V160.874ZM296.498 158.648C297.45 158.648 298.248 159.208 298.472 160.342H294.384C294.608 159.222 295.588 158.648 296.498 158.648ZM303.039 164.5V154.42H301.583V164.5H303.039ZM308.706 155.12V164.5H311.982C315.174 164.5 317.162 162.54 317.162 159.81C317.162 157.08 315.174 155.12 311.982 155.12H308.706ZM310.204 163.142V156.478H311.982C314.264 156.478 315.65 157.864 315.65 159.81C315.65 161.756 314.264 163.142 311.982 163.142H310.204ZM325.722 157.556H324.266V158.354C323.664 157.724 322.796 157.36 321.746 157.36C319.926 157.36 318.302 158.844 318.302 161.028C318.302 163.226 319.926 164.696 321.746 164.696C322.796 164.696 323.664 164.332 324.266 163.702V164.5H325.722V157.556ZM321.984 163.408C320.71 163.408 319.716 162.498 319.716 161.028C319.716 159.572 320.71 158.648 321.984 158.648C323.132 158.648 324.266 159.572 324.266 161.028C324.266 162.498 323.132 163.408 321.984 163.408ZM332.1 162.946C331.736 163.184 331.288 163.324 330.924 163.324C330.238 163.324 329.776 162.904 329.776 162.036V158.76H332.156V157.556H329.776V155.4H328.32V157.556H326.822V158.76H328.32V162.134C328.32 163.856 329.328 164.696 330.826 164.696C331.414 164.696 331.89 164.556 332.548 164.164L332.1 162.946ZM340.337 157.556H338.881V158.354C338.279 157.724 337.411 157.36 336.361 157.36C334.541 157.36 332.917 158.844 332.917 161.028C332.917 163.226 334.541 164.696 336.361 164.696C337.411 164.696 338.279 164.332 338.881 163.702V164.5H340.337V157.556ZM336.599 163.408C335.325 163.408 334.331 162.498 334.331 161.028C334.331 159.572 335.325 158.648 336.599 158.648C337.747 158.648 338.881 159.572 338.881 161.028C338.881 162.498 337.747 163.408 336.599 163.408Z" fill="black"/>
<path d="M276.213 178.12H275.107V185.652L268.975 178.12H268.023V187.5H269.129V180.052L275.261 187.5H276.213V178.12ZM279.654 181.83L279.794 179.114H284.316V178.12H278.772L278.562 182.824H281.516C282.79 182.824 283.63 183.44 283.63 184.658C283.63 185.876 282.734 186.674 281.404 186.674C280.06 186.674 279.066 185.806 279.066 184.252L278.002 184.462C278.016 186.492 279.472 187.682 281.39 187.682C283.378 187.682 284.68 186.436 284.68 184.644C284.68 182.824 283.462 181.83 281.6 181.83H279.654ZM286.093 189.348L287.437 185.694V185.666H286.177L285.253 189.348H286.093ZM292.439 177.938C290.115 177.938 288.547 179.912 288.547 182.81C288.547 185.722 290.115 187.682 292.439 187.682C294.763 187.682 296.317 185.722 296.317 182.81C296.317 179.912 294.763 177.938 292.439 177.938ZM292.439 186.646C290.759 186.646 289.667 185.092 289.667 182.81C289.667 180.514 290.759 178.96 292.439 178.96C294.105 178.96 295.197 180.514 295.197 182.81C295.197 185.092 294.105 186.646 292.439 186.646ZM301.75 177.938C299.426 177.938 297.858 179.912 297.858 182.81C297.858 185.722 299.426 187.682 301.75 187.682C304.074 187.682 305.628 185.722 305.628 182.81C305.628 179.912 304.074 177.938 301.75 177.938ZM301.75 186.646C300.07 186.646 298.978 185.092 298.978 182.81C298.978 180.514 300.07 178.96 301.75 178.96C303.416 178.96 304.508 180.514 304.508 182.81C304.508 185.092 303.416 186.646 301.75 186.646ZM311.06 177.938C308.736 177.938 307.168 179.912 307.168 182.81C307.168 185.722 308.736 187.682 311.06 187.682C313.384 187.682 314.938 185.722 314.938 182.81C314.938 179.912 313.384 177.938 311.06 177.938ZM311.06 186.646C309.38 186.646 308.288 185.092 308.288 182.81C308.288 180.514 309.38 178.96 311.06 178.96C312.726 178.96 313.818 180.514 313.818 182.81C313.818 185.092 312.726 186.646 311.06 186.646Z" fill="black"/>
<circle cx="246.75" cy="136.5" r="3.5" fill="#25AA22"/>
<g filter="url(#filter3_d_416_3839)">
<path d="M543.25 186.5C557.886 186.5 569.75 174.636 569.75 160C569.75 145.364 557.886 133.5 543.25 133.5C528.614 133.5 516.75 145.364 516.75 160C516.75 174.636 528.614 186.5 543.25 186.5Z" fill="#25AA22"/>
</g>
<path d="M541.043 170.431C540.986 170.431 540.928 170.429 540.871 170.427C540.366 170.402 539.872 170.267 539.423 170.032C538.975 169.797 538.582 169.466 538.272 169.063L534.121 163.679C533.55 162.937 533.295 161.997 533.41 161.065C533.525 160.133 534.002 159.285 534.736 158.708L534.885 158.591C535.62 158.015 536.552 157.757 537.476 157.873C538.399 157.989 539.24 158.47 539.812 159.211C539.999 159.453 540.235 159.651 540.504 159.793C540.773 159.934 541.07 160.015 541.373 160.03C541.677 160.048 541.98 159.998 542.263 159.883C542.545 159.769 542.799 159.593 543.006 159.369L551.433 150.392C552.074 149.711 552.956 149.314 553.886 149.289C554.817 149.263 555.719 149.611 556.395 150.256L556.532 150.387C557.208 151.033 557.601 151.924 557.626 152.863C557.651 153.802 557.307 154.712 556.667 155.395L543.59 169.325C543.263 169.674 542.868 169.953 542.43 170.143C541.992 170.333 541.52 170.431 541.043 170.431Z" fill="white"/>
<path opacity="0.16" d="M543.25 182.792C536.546 182.791 530.091 180.264 525.187 175.721C520.283 171.178 517.294 164.955 516.823 158.309C516.78 158.922 516.75 159.538 516.75 160.162C516.75 167.148 519.542 173.847 524.512 178.786C529.481 183.725 536.222 186.5 543.25 186.5C550.278 186.5 557.019 183.725 561.988 178.786C566.958 173.847 569.75 167.148 569.75 160.162C569.75 159.538 569.72 158.922 569.677 158.309C569.206 164.955 566.217 171.178 561.313 175.721C556.409 180.264 549.954 182.791 543.25 182.792Z" fill="#231F20"/>
</g>
<defs>
<filter id="filter0_d_416_3839" x="0" y="0" width="443" height="140" filterUnits="userSpaceOnUse" color-interpolation-filters="sRGB">
<feFlood flood-opacity="0" result="BackgroundImageFix"/>
<feColorMatrix in="SourceAlpha" type="matrix" values="0 0 0 0 0 0 0 0 0 0 0 0 0 0 0 0 0 0 127 0" result="hardAlpha"/>
<feOffset dx="13" dy="16"/>
<feGaussianBlur stdDeviation="15"/>
<feComposite in2="hardAlpha" operator="out"/>
<feColorMatrix type="matrix" values="0 0 0 0 0 0 0 0 0 0 0 0 0 0 0 0 0 0 0.25 0"/>
<feBlend mode="normal" in2="BackgroundImageFix" result="effect1_dropShadow_416_3839"/>
<feBlend mode="normal" in="SourceGraphic" in2="effect1_dropShadow_416_3839" result="shape"/>
</filter>
<filter id="filter1_d_416_3839" x="308.25" y="11.5" width="93" height="93" filterUnits="userSpaceOnUse" color-interpolation-filters="sRGB">
<feFlood flood-opacity="0" result="BackgroundImageFix"/>
<feColorMatrix in="SourceAlpha" type="matrix" values="0 0 0 0 0 0 0 0 0 0 0 0 0 0 0 0 0 0 127 0" result="hardAlpha"/>
<feOffset dy="4"/>
<feGaussianBlur stdDeviation="10"/>
<feComposite in2="hardAlpha" operator="out"/>
<feColorMatrix type="matrix" values="0 0 0 0 0.164706 0 0 0 0 0.2 0 0 0 0 0.509804 0 0 0 0.3 0"/>
<feBlend mode="normal" in2="BackgroundImageFix" result="effect1_dropShadow_416_3839"/>
<feBlend mode="normal" in="SourceGraphic" in2="effect1_dropShadow_416_3839" result="shape"/>
</filter>
<filter id="filter2_d_416_3839" x="214" y="106" width="411" height="140" filterUnits="userSpaceOnUse" color-interpolation-filters="sRGB">
<feFlood flood-opacity="0" result="BackgroundImageFix"/>
<feColorMatrix in="SourceAlpha" type="matrix" values="0 0 0 0 0 0 0 0 0 0 0 0 0 0 0 0 0 0 127 0" result="hardAlpha"/>
<feOffset dx="13" dy="16"/>
<feGaussianBlur stdDeviation="15"/>
<feComposite in2="hardAlpha" operator="out"/>
<feColorMatrix type="matrix" values="0 0 0 0 0 0 0 0 0 0 0 0 0 0 0 0 0 0 0.25 0"/>
<feBlend mode="normal" in2="BackgroundImageFix" result="effect1_dropShadow_416_3839"/>
<feBlend mode="normal" in="SourceGraphic" in2="effect1_dropShadow_416_3839" result="shape"/>
</filter>
<filter id="filter3_d_416_3839" x="496.75" y="117.5" width="93" height="93" filterUnits="userSpaceOnUse" color-interpolation-filters="sRGB">
<feFlood flood-opacity="0" result="BackgroundImageFix"/>
<feColorMatrix in="SourceAlpha" type="matrix" values="0 0 0 0 0 0 0 0 0 0 0 0 0 0 0 0 0 0 127 0" result="hardAlpha"/>
<feOffset dy="4"/>
<feGaussianBlur stdDeviation="10"/>
<feComposite in2="hardAlpha" operator="out"/>
<feColorMatrix type="matrix" values="0 0 0 0 0.164706 0 0 0 0 0.2 0 0 0 0 0.509804 0 0 0 0.3 0"/>
<feBlend mode="normal" in2="BackgroundImageFix" result="effect1_dropShadow_416_3839"/>
<feBlend mode="normal" in="SourceGraphic" in2="effect1_dropShadow_416_3839" result="shape"/>
</filter>
</defs>
</svg>
